<svg width="128" height="120" viewBox="0 0 128 120" fill="none" xmlns="http://www.w3.org/2000/svg">
  <path fill-rule="evenodd" clip-rule="evenodd" d="M15.0588 22.5H30.1176V37.5H15.0588V22.5ZM15.0588 52.5H30.1176V67.5H15.0588V52.5ZM15.0588 82.5H30.1176V97.5H15.0588V82.5ZM45.1765 22.5H112.941V37.5H45.1765V22.5ZM45.1765 52.5H112.941V67.5H45.1765V52.5ZM45.1765 82.5H112.941V97.5H45.1765V82.5Z" fill="#2B2B2B" fill-opacity="0.8"/>
  <path fill-rule="evenodd" clip-rule="evenodd" d="M92 60L76 76H92V60Z" fill="#9AA7B0" fill-opacity="0.8"/>
  <path fill-rule="evenodd" clip-rule="evenodd" d="M116 88H96V116H76V80H96V60H116V88Z" fill="#9AA7B0" fill-opacity="0.8"/>
  <path d="M100 120L114.048 105.952L128 120H100Z" fill="#0EAEFF"/>
  <path d="M100 92H114.048L100 107.168V92Z" fill="#0EAEFF"/>
  <path d="M114.048 92L100 106.792V120L114.048 105.952L128 92H114.048Z" fill="url(#paint0_linear)"/>
  <defs>
    <linearGradient id="paint0_linear" x1="95.2859" y1="117.743" x2="121.341" y2="91.6875" gradientUnits="userSpaceOnUse">
      <stop offset="0.1075" stop-color="#C757BC"/>
      <stop offset="0.2138" stop-color="#D0609A"/>
      <stop offset="0.4254" stop-color="#E1725C"/>
      <stop offset="0.6048" stop-color="#EE7E2F"/>
      <stop offset="0.743" stop-color="#F58613"/>
      <stop offset="0.8232" stop-color="#F88909"/>
    </linearGradient>
  </defs>
</svg>